# xmcd
#
# Track frame offsets:
#	150
#	15028
#	26963
#	43191
#	57874
#	77739
#	93079
#	110284
#	129672
#	148182
#	167082
#	179985
#	203213
#
# Disc length: 2901 seconds
#
# Revision: 1
# Processed by: cddbd v1.5.1PL2 Copyright (c) Steve Scherf et al.
# Submitted via: EasyCDDAExtractor 5.0.6
#
DISCID=b10b530d
DTITLE=Alberto Cortez - Leyendas CD1
DYEAR=2005
DGENRE=Ballad
TTITLE0=Gracias a la Vida
TTITLE1=Sombras
TTITLE2=A Partir de Mañana
TTITLE3=Cuando un Amigo se Va
TTITLE4=Me Llevare Conmigo
TTITLE5=Pobre de mi Patron
TTITLE6=Mi Arbol y Yo
TTITLE7=Yo Voy Soñando Caminos
TTITLE8=Ni Poco ni Demasiado
TTITLE9=Distancia
TTITLE10=Los Ejes de mi Carreta
TTITLE11=A Mis Amigos
TTITLE12=Te Llegara una Rosa
EXTD=
EXTT0=
EXTT1=
EXTT2=
EXTT3=
EXTT4=
EXTT5=
EXTT6=
EXTT7=
EXTT8=
EXTT9=
EXTT10=
EXTT11=
EXTT12=
PLAYORDER=
